<svg xmlns="http://www.w3.org/2000/svg" xmlns:xlink="http://www.w3.org/1999/xlink" height="100" width="100">
  <g>
    <g opacity="0.899">
      <path fill="rgb(255,255,255)" fill-opacity="1" opacity="1" fill-rule="evenodd" d="M41.41200256347656 9.379999160766602C40.5 8.459999084472656 39.40500259399414 8 38.12800216674805 8C36.82500076293945 8 35.724002838134766 8.452999114990234 34.82500076293945 9.360000610351562C33.926002502441406 10.266000747680664 33.47600173950195 11.37700080871582 33.47600173950195 12.690000534057617C33.47600173950195 13.97800064086914 33.932003021240234 15.067998886108398 34.84400177001953 15.961999893188477C35.75699996948242 16.854999542236328 36.85100173950195 17.302000045776367 38.12800216674805 17.302000045776367C39.40500259399414 17.302000045776367 40.5 16.854999542236328 41.41200256347656 15.961999893188477C42.32500076293945 15.067998886108398 42.781002044677734 13.97800064086914 42.781002044677734 12.690000534057617C42.781002044677734 11.402999877929688 42.32500076293945 10.299999237060547 41.41200256347656 9.379999160766602ZM41.65299987792969 20.829999923706055L41.65299987792969 22.8539981842041L69.31500244140625 64.48400115966797L69.31500244140625 26.26799964904785L67.85099792480469 24.80000114440918L62.983001708984375 24.08500099182129L62.983001708984375 20.83099937438965L80 20.83099937438965L80 24.08500099182129L75.13200378417969 24.80000114440918L73.66799926757812 26.26799964904785L73.66799926757812 75.35800170898438L68.32600402832031 75.35800170898438L33.233001708984375 24.560998916625977L26.41699981689453 24.084001541137695L26.41699981689453 20.829999923706055L41.65299987792969 20.829999923706055ZM35.111000061035156 31.0939998626709L35.11199951171875 31.095518112182617L35.11199951171875 76.39900207519531L35.11000061035156 76.91100311279297C35.08000183105469 80.44600677490234 34.73200225830078 83.18700408935547 34.066001892089844 85.1310043334961C33.369998931884766 87.16699981689453 32.29800033569336 88.42200469970703 30.849998474121094 88.8949966430664L23 84.125L22.713001251220703 84.26300048828125C21.878999710083008 84.69000244140625 21.230998992919922 85.22100067138672 20.770000457763672 85.86000061035156C20.256000518798828 86.56900024414062 20 87.39700317382812 20 88.34300231933594C20 89.6830062866211 20.5 90.74100494384766 21.499000549316406 91.51599884033203C22.499000549316406 92.29199981689453 23.867000579833984 92.67900085449219 25.602001190185547 92.67900085449219C27.764827728271484 92.68358612060547 29.90375518798828 92.22675323486328 31.875999450683594 91.33899688720703C33.875 90.44600677490234 35.650001525878906 89.1449966430664 37.20199966430664 87.43700408935547C38.88500213623047 85.62300109863281 40.07600021362305 83.46199798583984 40.77300262451172 80.9520034790039C41.470001220703125 78.44300079345703 41.81800079345703 74.23100280761719 41.81800079345703 68.31900024414062L41.81800079345703 41.27899932861328L35.11199951171875 31.095518112182617L35.11199951171875 31.0939998626709L35.111000061035156 31.0939998626709Z"/>
    </g>
  </g>
</svg>