<?xml version="1.0" standalone="no"?>
<!DOCTYPE svg PUBLIC "-//W3C//DTD SVG 20010904//EN"
 "http://www.w3.org/TR/2001/REC-SVG-20010904/DTD/svg10.dtd">
<svg version="1.0" xmlns="http://www.w3.org/2000/svg"
 width="700.000000pt" height="700.000000pt" viewBox="0 0 700.000000 700.000000"
 preserveAspectRatio="xMidYMid meet">
<metadata>
Created by potrace 1.11, written by Peter Selinger 2001-2013
</metadata>
<g transform="translate(0.000000,700.000000) scale(0.100000,-0.100000)"
fill="#000000" stroke="none">
<path d="M2513 6664 c-195 -50 -300 -250 -239 -452 23 -75 95 -156 178 -199
47 -24 64 -27 148 -28 83 0 102 3 152 27 76 35 151 114 179 186 34 89 30 196
-10 277 -76 153 -244 231 -408 189z"/>
<path d="M1725 5710 c-2 -3 -3 -58 -2 -122 0 -113 1 -118 21 -119 12 0 37 -2
56 -4 19 -1 80 -6 135 -9 117 -8 251 -17 280 -19 14 -2 51 -47 117 -142 54
-77 113 -162 133 -190 19 -27 163 -234 319 -460 156 -225 299 -430 316 -455
17 -25 61 -88 97 -140 36 -52 183 -264 326 -470 143 -206 398 -573 566 -815
168 -242 415 -597 548 -790 l243 -350 200 -1 c134 0 200 3 203 10 1 6 3 834 2
1841 l-1 1830 56 56 c58 59 51 57 185 75 11 1 34 5 50 7 17 3 53 8 80 11 83
10 105 17 106 32 1 18 1 154 0 197 l-1 32 -640 0 -640 0 -1 -45 c-1 -96 1
-193 5 -197 2 -2 48 -11 102 -18 55 -8 108 -16 119 -18 11 -3 47 -8 80 -12 55
-7 63 -11 115 -64 l56 -56 0 -1427 c0 -786 -3 -1428 -6 -1427 -3 0 -284 419
-625 931 -341 512 -808 1212 -1037 1557 l-418 626 0 75 0 75 -571 0 c-314 0
-572 -2 -574 -5z"/>
<path d="M2380 4930 c-1 -3 -3 -826 -5 -1830 -2 -1004 -6 -1847 -9 -1874 -31
-256 -91 -440 -174 -530 -31 -33 -110 -86 -128 -86 -7 0 -140 77 -296 171
-156 95 -291 174 -300 176 -23 7 -121 -60 -159 -108 -50 -63 -69 -125 -65
-216 6 -154 91 -248 266 -293 75 -19 253 -20 341 -1 30 6 68 14 83 17 97 17
254 88 376 169 170 113 342 309 420 481 75 163 100 274 135 589 13 121 18 481
19 1475 l1 1105 -115 175 c-369 561 -388 590 -390 580z"/>
</g>
</svg>
