<svg width="60" height="85" xmlns="http://www.w3.org/2000/svg"><path d="M15.111 23.166l6.707 10.185v27.04c0 5.912-.348 10.124-1.045 12.633-.697 2.51-1.888 4.671-3.571 6.485-1.552 1.708-3.327 3.009-5.326 3.902a15.207 15.207 0 0 1-6.274 1.34c-1.735 0-3.103-.387-4.103-1.163C.5 82.813 0 81.755 0 80.415c0-.946.256-1.774.77-2.483.461-.639 1.109-1.17 1.943-1.597L3 76.197l7.85 4.77c1.448-.473 2.52-1.728 3.216-3.764.666-1.944 1.014-4.685 1.044-8.22l.002-.512V23.166zm6.542-10.264v2.024l27.662 41.63V18.34l-1.464-1.468-4.868-.715v-3.254H60v3.254l-4.868.715-1.464 1.468V67.43h-5.342L13.233 16.633l-6.816-.477v-3.254h15.236zM18.128.072c1.277 0 2.372.46 3.284 1.38.913.92 1.369 2.023 1.369 3.31 0 1.288-.456 2.378-1.369 3.272-.912.893-2.007 1.34-3.284 1.34-1.277 0-2.371-.447-3.284-1.34-.912-.894-1.368-1.984-1.368-3.272 0-1.313.45-2.424 1.349-3.33.899-.907 2-1.36 3.303-1.36z" fill="#FFF" opacity=".899"/></svg>
